<?xml version="1.0" encoding="utf-8"?>
<!-- Generator: Adobe Illustrator 16.0.0, SVG Export Plug-In . SVG Version: 6.00 Build 0)  -->
<!DOCTYPE svg PUBLIC "-//W3C//DTD SVG 1.1//EN" "http://www.w3.org/Graphics/SVG/1.1/DTD/svg11.dtd">
<svg version="1.1" id="Layer_1" xmlns="http://www.w3.org/2000/svg" xmlns:xlink="http://www.w3.org/1999/xlink" x="0px" y="0px"
	 width="254.118px" height="211.765px" viewBox="0 0 254.118 211.765" enable-background="new 0 0 254.118 211.765"
	 xml:space="preserve">
<path d="M127.326,23.808c-46.361,3.998-66.588,47.961-82.028,97.279L25.801,62.391H2.832l32.886,87.672h20.317
	C71.376,94.404,91.347,38.549,127.326,23.808"/>
<path d="M119.517,133.555c-11.711,0-21.869-5.424-28.332-9.285l-5.587,18.068c8.049,5.296,21.415,9.813,34.313,9.813
	c22.836,0,34.666-11.63,34.666-27.797c0-18.154-15.016-22.703-28.933-26.721c-11.087-3.2-16.386-5.139-16.386-10.546
	c0-5.259,4.768-8.412,13.688-8.412c9.327,0,18.443,3.893,22.773,5.931c2.029-5.777,4.818-11.28,8.242-16.341
	c-4.885-2.691-16.189-7.977-30.598-7.977c-21.555,0-35.531,10.824-35.531,27.05c0,16.151,12.438,21.955,27.148,26.055
	c11.847,3.301,18.174,5.399,18.174,11.118C133.153,130.246,128.083,133.555,119.517,133.555"/>
<path d="M205.971,132.477c-14.277,0-24.811-11.686-24.811-26.043c0-14.268,10.826-26.321,24.811-26.321
	c13.985,0,24.809,12.053,24.809,26.321C230.78,120.792,220.247,132.477,205.971,132.477 M205.706,60.306
	c-25.285,0-45.856,20.634-45.856,45.99c0,25.282,20.69,45.852,46.122,45.852c25.431,0,46.12-20.569,46.12-45.852
	C252.091,80.94,230.99,60.306,205.706,60.306"/>
<path fill="#AD0075" d="M212.545,52.501c10.802,1.353,20.909,5.896,29.202,13.176c-3.26-6.843-7.178-13.201-11.397-18.732
	C214.047,25.586,185.899,7.822,151.077,7.98c-20.083,0.095-39.708,6.074-56.229,17.247c13.288-6.795,28.06-10.359,43.108-10.359
	C143.021,14.868,183.971,16.201,212.545,52.501"/>
<path fill="#AD0075" d="M137.955,200.8c-15.047,0-29.82-3.564-43.106-10.359c16.52,11.172,36.145,17.149,56.229,17.245
	c34.821,0.159,62.969-17.605,79.272-38.964c5.248-6.877,10.026-15.033,13.66-23.813c-7.721,7.529-17.68,12.795-28.78,14.698
	C186.608,199.386,143.183,200.8,137.955,200.8"/>
</svg>
